<svg xmlns="http://www.w3.org/2000/svg" width="171" height="47" viewBox="0 0 171 47" fill="none">
<g clip-path="url(#clip0_213_2)">
<path d="M32.3739 4.39262C28.8911 0.558481 23.923 0.0760393 22.2584 0.0252559C20.7218 -0.0255274 7.37952 0.0252559 5.30518 0.0252559C5.17714 0.0252559 5.04909 0.0252559 4.92105 0.0252559C4.33204 -0.000135751 1.59187 -0.127094 0.977256 2.58982C0.926038 2.86912 0.900429 3.17382 0.900429 3.45313L0.695557 46.2635H11.1697V28.5909H21.9255C24.4351 28.5909 26.9192 28.0323 29.1216 26.8897C30.9398 25.9502 32.7325 24.5282 33.5776 22.4461C35.9336 16.606 35.8824 8.22677 32.3739 4.39262ZM26.0741 14.0669C26.2278 20.8972 18.7499 20.4909 18.7499 20.4909H11.2209V7.38884H19.0572C27.1241 7.38884 26.0741 14.0669 26.0741 14.0669Z" fill="#242424"/>
<path d="M51.6835 0H46.5361C44.2313 0 42.3875 1.85359 42.3875 4.11345V46.2636H51.6835V0Z" fill="#242424"/>
<path d="M89.4056 16.5807V42.4295C89.4056 44.5624 87.6642 46.289 85.5386 46.289H79.9558V43.6229C78.1376 45.4257 75.0389 47.1777 70.0195 46.7715C62.7722 46.1874 61.0564 40.3981 60.6722 37.5797C60.5698 36.7671 60.5442 36.2339 60.5442 36.1069C60.5442 36.0816 60.5442 36.0816 60.5442 36.0816V20.4149C60.5442 18.282 62.2856 16.5807 64.4112 16.5807H69.9939V36.0054C69.9939 37.021 70.3268 38.0113 70.9927 38.7985C71.6585 39.5856 72.5548 40.1188 73.7585 40.0934C76.9852 40.0427 78.9571 38.4938 79.6485 37.859C79.8278 37.7066 79.9046 37.4781 79.9046 37.2496V16.5807H89.4056Z" fill="#242424"/>
<path d="M122.518 43.242C122.518 43.242 120.623 45.0956 118.139 45.8828C115.655 46.6699 110.072 47.4571 105.36 44.9433C100.648 42.4295 100.571 35.3452 100.571 35.3452V23.6143H94.3225V19.5516C94.3225 17.3425 96.1151 15.5651 98.3431 15.5651H100.571V5.51001H110.2V15.5651H120.008V23.6143H110.2V35.3452C110.2 35.3452 110.2 35.2945 110.175 35.3198C110.175 35.3198 110.175 35.3198 110.175 35.3452C110.149 35.4468 110.149 35.7515 110.2 36.7164C110.277 38.4684 111.711 38.6715 111.711 38.6715C113.76 39.3825 115.988 38.5954 117.268 37.7067C118.549 36.8433 119.701 38.3922 119.701 38.3922L122.518 43.242Z" fill="#242424"/>
<path d="M142.057 16.5807H135.245C129.611 16.5807 125.053 21.1005 125.053 26.6866V36.7417C125.053 42.3279 129.611 46.8476 135.245 46.8476H142.057C147.691 46.8476 152.25 42.3279 152.25 36.7417V26.6866C152.224 21.1005 147.666 16.5807 142.057 16.5807ZM142.749 36.0054C142.749 38.2652 140.905 40.0934 138.626 40.0934C136.347 40.0934 134.503 38.2652 134.503 36.0054V27.1183C134.503 24.8584 136.347 23.0302 138.626 23.0302C140.905 23.0302 142.749 24.8584 142.749 27.1183V36.0054Z" fill="#242424"/>
<path d="M164.517 46.9746C167.713 46.9746 170.304 44.4054 170.304 41.2361C170.304 38.0668 167.713 35.4976 164.517 35.4976C161.32 35.4976 158.729 38.0668 158.729 41.2361C158.729 44.4054 161.32 46.9746 164.517 46.9746Z" fill="#7DD1E9"/>
</g>
<defs>
<clipPath id="clip0_213_2">
<rect width="169.609" height="47" fill="white" transform="translate(0.695557)"/>
</clipPath>
</defs>
</svg>